<svg width="232" height="38" viewBox="0 0 232 38" fill="none" xmlns="http://www.w3.org/2000/svg">
<path d="M8.47202 37C6.64802 37 5.09602 36.728 3.81602 36.184C2.56802 35.608 1.62402 34.712 0.984022 33.496C0.376022 32.248 0.0720215 30.616 0.0720215 28.6V1.48001H7.17602V27.448C7.17602 28.216 7.30402 28.84 7.56002 29.32C7.84802 29.8 8.23202 30.136 8.71202 30.328C9.19202 30.488 9.73602 30.568 10.344 30.568H21.576V37H8.47202Z" fill="#141414"/>
<path d="M32.7195 37.288C30.4155 37.288 28.6075 36.616 27.2955 35.272C25.9835 33.896 25.3275 31.96 25.3275 29.464V11.224H32.4315V27.352C32.4315 28.792 32.7675 29.768 33.4395 30.28C34.1435 30.76 35.0555 31 36.1755 31C37.0715 31 37.9835 30.84 38.9115 30.52C39.8715 30.168 40.7195 29.704 41.4555 29.128V11.224H48.6075V37H42.7035L41.4555 34.36C40.3035 35.128 38.9755 35.816 37.4715 36.424C35.9675 37 34.3835 37.288 32.7195 37.288Z" fill="#141414"/>
<path d="M64.0024 37.288C62.4344 37.288 60.9784 37.08 59.6344 36.664C58.3224 36.248 57.1864 35.56 56.2264 34.6C55.2664 33.608 54.5144 32.28 53.9704 30.616C53.4584 28.92 53.2024 26.792 53.2024 24.232C53.2024 21.608 53.4424 19.432 53.9224 17.704C54.4024 15.976 55.1064 14.616 56.0344 13.624C56.9944 12.6 58.1624 11.88 59.5384 11.464C60.9144 11.048 62.4664 10.84 64.1944 10.84C65.7624 10.84 67.2504 10.936 68.6584 11.128C70.0984 11.288 71.6024 11.592 73.1704 12.04V16.12H66.4024C64.9304 16.12 63.7464 16.344 62.8504 16.792C61.9544 17.208 61.2984 18.008 60.8824 19.192C60.4984 20.344 60.3064 22.008 60.3064 24.184C60.3064 26.328 60.4984 27.96 60.8824 29.08C61.2984 30.2 61.9544 30.952 62.8504 31.336C63.7784 31.72 64.9944 31.912 66.4984 31.912H73.5544V35.944C72.7544 36.2 71.8264 36.44 70.7704 36.664C69.7144 36.856 68.5944 37 67.4104 37.096C66.2584 37.224 65.1224 37.288 64.0024 37.288Z" fill="#141414"/>
<path d="M82.9736 37.288C81.0216 37.288 79.4376 36.712 78.2216 35.56C77.0056 34.408 76.3976 32.808 76.3976 30.76V28.456C76.3976 26.504 77.0856 24.904 78.4616 23.656C79.8376 22.376 81.9816 21.736 84.8936 21.736H91.4697V19.96C91.4697 19.16 91.3256 18.504 91.0376 17.992C90.7496 17.448 90.2056 17.064 89.4056 16.84C88.6376 16.584 87.4536 16.456 85.8536 16.456H78.1256V12.328C79.3736 11.944 80.8136 11.608 82.4456 11.32C84.1096 11.032 86.1096 10.888 88.4456 10.888C90.5896 10.888 92.4136 11.144 93.9176 11.656C95.4536 12.168 96.6056 13.048 97.3736 14.296C98.1736 15.544 98.5736 17.272 98.5736 19.48V37H92.9576L91.8056 34.264C91.5816 34.52 91.1976 34.808 90.6536 35.128C90.1096 35.448 89.4376 35.784 88.6376 36.136C87.8696 36.456 86.9897 36.728 85.9977 36.952C85.0377 37.176 84.0296 37.288 82.9736 37.288ZM86.5736 32.344C86.8936 32.344 87.2456 32.312 87.6296 32.248C88.0456 32.152 88.4616 32.056 88.8776 31.96C89.3256 31.832 89.7256 31.72 90.0776 31.624C90.4616 31.496 90.7656 31.384 90.9896 31.288C91.2456 31.192 91.4057 31.128 91.4697 31.096V25.096L87.1497 25.384C85.9017 25.48 84.9736 25.8 84.3656 26.344C83.7896 26.888 83.5016 27.624 83.5016 28.552V29.608C83.5016 30.248 83.6297 30.776 83.8857 31.192C84.1737 31.608 84.5416 31.912 84.9896 32.104C85.4696 32.264 85.9976 32.344 86.5736 32.344Z" fill="#141414"/>
<path d="M113.252 37.288C112.452 37.288 111.588 37.256 110.66 37.192C109.732 37.16 108.804 37.096 107.876 37C106.948 36.904 106.084 36.792 105.284 36.664C104.484 36.504 103.812 36.328 103.268 36.136V31.96H114.692C115.364 31.96 115.908 31.912 116.324 31.816C116.772 31.688 117.092 31.48 117.284 31.192C117.508 30.872 117.62 30.424 117.62 29.848V29.032C117.62 28.392 117.412 27.896 116.996 27.544C116.58 27.192 115.812 27.016 114.692 27.016H110.66C109.188 27.016 107.86 26.792 106.676 26.344C105.492 25.896 104.548 25.16 103.844 24.136C103.172 23.112 102.836 21.736 102.836 20.008V18.52C102.836 16.888 103.156 15.512 103.796 14.392C104.436 13.272 105.508 12.424 107.012 11.848C108.516 11.272 110.58 10.984 113.204 10.984C114.26 10.984 115.38 11.048 116.564 11.176C117.78 11.272 118.916 11.416 119.972 11.608C121.06 11.768 121.924 11.96 122.564 12.184V16.36H111.764C110.836 16.36 110.132 16.52 109.652 16.84C109.172 17.128 108.932 17.688 108.932 18.52V19.288C108.932 19.864 109.044 20.296 109.268 20.584C109.492 20.84 109.828 21.032 110.276 21.16C110.756 21.256 111.348 21.304 112.052 21.304H116.18C118.804 21.304 120.708 21.912 121.892 23.128C123.108 24.312 123.716 25.96 123.716 28.072V30.376C123.716 32.104 123.3 33.48 122.468 34.504C121.668 35.496 120.484 36.216 118.916 36.664C117.38 37.08 115.492 37.288 113.252 37.288Z" fill="#141414"/>
<path d="M140.838 37V1.48001H155.862C158.262 1.48001 160.262 1.91201 161.862 2.77601C163.462 3.60801 164.726 4.82401 165.654 6.42401C166.614 7.99201 167.286 9.86401 167.67 12.04C168.054 14.216 168.246 16.616 168.246 19.24C168.246 23.24 167.782 26.552 166.854 29.176C165.958 31.8 164.598 33.768 162.774 35.08C160.95 36.36 158.646 37 155.862 37H140.838ZM147.942 30.616H155.142C156.614 30.616 157.782 30.2 158.646 29.368C159.51 28.504 160.134 27.224 160.518 25.528C160.934 23.832 161.142 21.736 161.142 19.24C161.142 16.936 161.014 15.048 160.758 13.576C160.502 12.072 160.118 10.904 159.606 10.072C159.126 9.24001 158.502 8.66401 157.734 8.34401C156.998 8.02401 156.134 7.86401 155.142 7.86401H147.942V30.616Z" fill="#141414"/>
<path d="M173.991 7.43201C173.319 7.43201 172.983 7.11201 172.983 6.47201V1.76801C172.983 1.09601 173.319 0.76001 173.991 0.76001H179.463C179.751 0.76001 179.975 0.85601 180.135 1.04801C180.295 1.24001 180.375 1.48001 180.375 1.76801V6.47201C180.375 7.11201 180.071 7.43201 179.463 7.43201H173.991ZM173.127 37V11.224H180.231V37H173.127Z" fill="#141414"/>
<path d="M191.161 37.288C189.209 37.288 187.625 36.712 186.409 35.56C185.193 34.408 184.585 32.808 184.585 30.76V28.456C184.585 26.504 185.273 24.904 186.649 23.656C188.025 22.376 190.169 21.736 193.081 21.736H199.657V19.96C199.657 19.16 199.513 18.504 199.225 17.992C198.937 17.448 198.393 17.064 197.593 16.84C196.825 16.584 195.641 16.456 194.041 16.456H186.313V12.328C187.561 11.944 189.001 11.608 190.633 11.32C192.297 11.032 194.297 10.888 196.633 10.888C198.777 10.888 200.601 11.144 202.105 11.656C203.641 12.168 204.793 13.048 205.561 14.296C206.361 15.544 206.761 17.272 206.761 19.48V37H201.145L199.993 34.264C199.769 34.52 199.385 34.808 198.841 35.128C198.297 35.448 197.625 35.784 196.825 36.136C196.057 36.456 195.177 36.728 194.185 36.952C193.225 37.176 192.217 37.288 191.161 37.288ZM194.761 32.344C195.081 32.344 195.433 32.312 195.817 32.248C196.233 32.152 196.649 32.056 197.065 31.96C197.513 31.832 197.913 31.72 198.265 31.624C198.649 31.496 198.953 31.384 199.177 31.288C199.433 31.192 199.593 31.128 199.657 31.096V25.096L195.337 25.384C194.089 25.48 193.161 25.8 192.553 26.344C191.977 26.888 191.689 27.624 191.689 28.552V29.608C191.689 30.248 191.817 30.776 192.073 31.192C192.361 31.608 192.729 31.912 193.177 32.104C193.657 32.264 194.185 32.344 194.761 32.344Z" fill="#141414"/>
<path d="M221.44 37.288C220.64 37.288 219.776 37.256 218.848 37.192C217.92 37.16 216.992 37.096 216.064 37C215.136 36.904 214.272 36.792 213.472 36.664C212.672 36.504 212 36.328 211.456 36.136V31.96H222.88C223.552 31.96 224.096 31.912 224.512 31.816C224.96 31.688 225.28 31.48 225.472 31.192C225.696 30.872 225.808 30.424 225.808 29.848V29.032C225.808 28.392 225.6 27.896 225.184 27.544C224.768 27.192 224 27.016 222.88 27.016H218.848C217.376 27.016 216.048 26.792 214.864 26.344C213.68 25.896 212.736 25.16 212.032 24.136C211.36 23.112 211.024 21.736 211.024 20.008V18.52C211.024 16.888 211.344 15.512 211.984 14.392C212.624 13.272 213.696 12.424 215.2 11.848C216.704 11.272 218.768 10.984 221.392 10.984C222.448 10.984 223.568 11.048 224.752 11.176C225.968 11.272 227.104 11.416 228.16 11.608C229.248 11.768 230.112 11.96 230.752 12.184V16.36H219.952C219.024 16.36 218.32 16.52 217.84 16.84C217.36 17.128 217.12 17.688 217.12 18.52V19.288C217.12 19.864 217.232 20.296 217.456 20.584C217.68 20.84 218.016 21.032 218.464 21.16C218.944 21.256 219.536 21.304 220.24 21.304H224.368C226.992 21.304 228.896 21.912 230.08 23.128C231.296 24.312 231.904 25.96 231.904 28.072V30.376C231.904 32.104 231.488 33.48 230.656 34.504C229.856 35.496 228.672 36.216 227.104 36.664C225.568 37.08 223.68 37.288 221.44 37.288Z" fill="#141414"/>
</svg>
